<?xml version="1.0" encoding="utf-8"?>
<!-- Generator: Adobe Illustrator 17.1.0, SVG Export Plug-In . SVG Version: 6.00 Build 0)  -->
<!DOCTYPE svg PUBLIC "-//W3C//DTD SVG 1.1//EN" "http://www.w3.org/Graphics/SVG/1.1/DTD/svg11.dtd">
<svg version="1.1" id="Layer_1" xmlns="http://www.w3.org/2000/svg" xmlns:xlink="http://www.w3.org/1999/xlink" x="0px" y="0px"
	 viewBox="0 0 30.1 30.1" enable-background="new 0 0 30.1 30.1" xml:space="preserve">
<g>
	<path d="M29.1,15.1c0,7.8-6.3,14.1-14.1,14.1C7.3,29.1,1,22.8,1,15.1C1,7.3,7.3,1,15.1,1C22.8,1,29.1,7.3,29.1,15.1z"/>
	<path fill="#FFFFFF" d="M15.1,30.1C6.8,30.1,0,23.4,0,15.1C0,6.8,6.8,0,15.1,0c8.3,0,15.1,6.8,15.1,15.1
		C30.1,23.4,23.4,30.1,15.1,30.1z M15.1,2C7.9,2,2,7.9,2,15.1c0,7.2,5.9,13.1,13.1,13.1c7.2,0,13.1-5.9,13.1-13.1
		C28.1,7.9,22.3,2,15.1,2z"/>
	<path fill="#F7F7F7" d="M21.1,22.3c-0.3,0-0.6-0.1-0.8-0.4L8.1,9.8c-0.5-0.5-0.5-1.2,0-1.7c0.5-0.5,1.2-0.5,1.7,0l12.1,12.1
		c0.5,0.5,0.5,1.2,0,1.7C21.7,22.2,21.4,22.3,21.1,22.3z"/>
	<path fill="#FFFFFF" d="M9,22.1c-0.3,0-0.5-0.1-0.7-0.3c-0.4-0.4-0.4-1.1,0-1.5L20.3,8.2c0.4-0.4,1.1-0.4,1.5,0
		c0.4,0.4,0.4,1.1,0,1.5L9.7,21.8C9.5,22,9.3,22.1,9,22.1z"/>
</g>
</svg>
