<svg version="1.1" id="logo_img_sm" xmlns="http://www.w3.org/2000/svg" xmlns:xlink="http://www.w3.org/1999/xlink" x="0px" y="0px" viewBox="0 0 302.6 94" enable-background="new 0 0 302.6 94" xml:space="preserve" class="gwd-img-bmsb" is="gwd-image" source="assets/logo_horz_1.svg" gwd-svg-index="0" src="assets/logo_horz_1.svg" data-gwd-node="true">
<g data-gwd-node="true">
	<g data-gwd-node="true">
		<path fill="#999999" d="M105.2,63.5h27.3v7.9H95.3V12.1h9.9V63.5z" data-gwd-node="true"></path>
		<path fill="#999999" d="M185.1,47.1c0,7.3-2.3,13.3-6.8,18c-4.6,4.8-10.5,7.2-17.7,7.2c-7.1,0-12.9-2.4-17.3-7.2
			c-4.4-4.8-6.7-10.8-6.7-18V36.4c0-7.2,2.2-13.2,6.7-18c4.4-4.8,10.2-7.2,17.3-7.2c7.3,0,13.2,2.4,17.7,7.2
			c4.6,4.8,6.8,10.8,6.8,18V47.1z M175.2,36.3c0-4.9-1.3-9-4-12.2s-6.2-4.8-10.7-4.8c-4.3,0-7.8,1.6-10.3,4.8
			c-2.5,3.2-3.8,7.2-3.8,12.2v10.8c0,5,1.3,9.1,3.8,12.3c2.5,3.2,6,4.8,10.4,4.8c4.5,0,8.1-1.6,10.7-4.8c2.6-3.2,3.9-7.3,3.9-12.3
			V36.3z" data-gwd-node="true"></path>
		<path fill="#999999" d="M240,63.4c-1.6,2.3-4.2,4.3-7.8,6.1c-3.6,1.8-8.2,2.8-13.9,2.8c-7.1,0-13-2.3-17.6-6.8
			c-4.6-4.5-6.9-10.4-6.9-17.5V35.5c0-7.2,2.2-13,6.5-17.5s10-6.8,16.9-6.8c7,0,12.4,1.7,16.3,5.2c3.9,3.4,5.8,7.9,5.9,13.4
			l-0.1,0.2H230c-0.2-3.3-1.4-5.9-3.5-7.9s-5.2-3-9.1-3c-4.1,0-7.4,1.5-9.9,4.6c-2.5,3.1-3.8,7-3.8,11.7v12.5
			c0,4.8,1.4,8.7,4.1,11.8c2.7,3.1,6.3,4.6,10.6,4.6c3.1,0,5.6-0.4,7.5-1.1c1.9-0.7,3.3-1.6,4.2-2.5v-12h-11.8v-7.4H240V63.4z" data-gwd-node="true"></path>
		<path fill="#999999" d="M298.4,47.1c0,7.3-2.3,13.3-6.8,18c-4.6,4.8-10.5,7.2-17.7,7.2c-7.1,0-12.9-2.4-17.3-7.2
			c-4.4-4.8-6.7-10.8-6.7-18V36.4c0-7.2,2.2-13.2,6.7-18c4.4-4.8,10.2-7.2,17.3-7.2c7.3,0,13.2,2.4,17.7,7.2
			c4.6,4.8,6.8,10.8,6.8,18V47.1z M288.5,36.3c0-4.9-1.3-9-4-12.2s-6.2-4.8-10.7-4.8c-4.3,0-7.8,1.6-10.3,4.8
			c-2.5,3.2-3.8,7.2-3.8,12.2v10.8c0,5,1.3,9.1,3.8,12.3c2.5,3.2,6,4.8,10.4,4.8c4.5,0,8.1-1.6,10.7-4.8c2.6-3.2,3.9-7.3,3.9-12.3
			V36.3z" data-gwd-node="true"></path>
	</g>
	<g data-gwd-node="true">
		<path fill="none" stroke="#000000" stroke-width="10" stroke-miterlimit="10" d="M5,42.8" data-gwd-node="true"></path>
		<path fill="none" stroke="#000000" stroke-width="10" stroke-miterlimit="10" d="M68.4,42.8" data-gwd-node="true"></path>
		<path fill="none" stroke="#4480F6" stroke-width="10" stroke-miterlimit="10" d="M5,42.8c0-17.5,14.2-31.7,31.7-31.7" data-gwd-node="true"></path>
		<path fill="none" stroke="#DB4534" stroke-width="10" stroke-miterlimit="10" d="M36.7,11.1c17.5,0,31.7,14.2,31.7,31.7" data-gwd-node="true"></path>
		<path fill="none" stroke="#CCCCCC" stroke-width="10" stroke-miterlimit="10" d="M68.4,42.8c0,17.5-14.2,31.7-31.7,31.7" data-gwd-node="true"></path>
		<path fill="none" stroke="#F3B500" stroke-width="10" stroke-miterlimit="10" d="M36.7,74.5C19.2,74.5,5,60.3,5,42.8" data-gwd-node="true"></path>
	</g>
</g>
</svg>